<mxfile modified="2020-12-28T12:10:41.049Z" host="app.diagrams.net" agent="5.0 (Windows NT 10.0; Win64; x64) AppleWebKit/537.36 (KHTML, like Gecko) Chrome/87.0.4280.88 Safari/537.36" etag="BVCFvgxMvK7rXjiROPga" version="14.1.2" type="github">
  <diagram id="Ht1M8jgEwFfnCIfOTk4-" name="Page-1">
    <mxGraphModel dx="1422" dy="762" grid="1" gridSize="10" guides="1" tooltips="1" connect="1" arrows="1" fold="1" page="1" pageScale="1" pageWidth="1169" pageHeight="827" math="0" shadow="0">
      <root>
        <mxCell id="0" />
        <mxCell id="1" parent="0" />
        <mxCell id="2aH_tvC3fVsrlXDJNFyo-2" value="vpc-pub-test-1" style="points=[[0,0],[0.25,0],[0.5,0],[0.75,0],[1,0],[1,0.25],[1,0.5],[1,0.75],[1,1],[0.75,1],[0.5,1],[0.25,1],[0,1],[0,0.75],[0,0.5],[0,0.25]];outlineConnect=0;gradientColor=none;html=1;whiteSpace=wrap;fontSize=12;fontStyle=0;shape=mxgraph.aws4.group;grIcon=mxgraph.aws4.group_vpc;strokeColor=#248814;fillColor=none;verticalAlign=top;align=left;spacingLeft=30;fontColor=#AAB7B8;dashed=0;" vertex="1" parent="1">
          <mxGeometry x="150" y="130" width="520" height="520" as="geometry" />
        </mxCell>
        <mxCell id="2aH_tvC3fVsrlXDJNFyo-7" value="" style="edgeStyle=orthogonalEdgeStyle;rounded=0;orthogonalLoop=1;jettySize=auto;html=1;" edge="1" parent="1" source="2aH_tvC3fVsrlXDJNFyo-3" target="2aH_tvC3fVsrlXDJNFyo-4">
          <mxGeometry relative="1" as="geometry" />
        </mxCell>
        <mxCell id="2aH_tvC3fVsrlXDJNFyo-3" value="router-vpc-im-1" style="outlineConnect=0;fontColor=#232F3E;gradientColor=none;fillColor=#5A30B5;strokeColor=none;dashed=0;verticalLabelPosition=bottom;verticalAlign=top;align=center;html=1;fontSize=12;fontStyle=0;aspect=fixed;pointerEvents=1;shape=mxgraph.aws4.customer_gateway;" vertex="1" parent="1">
          <mxGeometry x="550" y="350" width="49" height="49" as="geometry" />
        </mxCell>
        <mxCell id="2aH_tvC3fVsrlXDJNFyo-4" value="igw-pub-test-1" style="outlineConnect=0;fontColor=#232F3E;gradientColor=none;fillColor=#5A30B5;strokeColor=none;dashed=0;verticalLabelPosition=bottom;verticalAlign=top;align=center;html=1;fontSize=12;fontStyle=0;aspect=fixed;pointerEvents=1;shape=mxgraph.aws4.internet_gateway;" vertex="1" parent="1">
          <mxGeometry x="650" y="350" width="49" height="49" as="geometry" />
        </mxCell>
        <mxCell id="2aH_tvC3fVsrlXDJNFyo-6" style="edgeStyle=orthogonalEdgeStyle;rounded=0;orthogonalLoop=1;jettySize=auto;html=1;exitX=1;exitY=0.5;exitDx=0;exitDy=0;" edge="1" parent="1" source="2aH_tvC3fVsrlXDJNFyo-5" target="2aH_tvC3fVsrlXDJNFyo-3">
          <mxGeometry relative="1" as="geometry" />
        </mxCell>
        <mxCell id="2aH_tvC3fVsrlXDJNFyo-5" value="Public subnet" style="points=[[0,0],[0.25,0],[0.5,0],[0.75,0],[1,0],[1,0.25],[1,0.5],[1,0.75],[1,1],[0.75,1],[0.5,1],[0.25,1],[0,1],[0,0.75],[0,0.5],[0,0.25]];outlineConnect=0;gradientColor=none;html=1;whiteSpace=wrap;fontSize=12;fontStyle=0;shape=mxgraph.aws4.group;grIcon=mxgraph.aws4.group_security_group;grStroke=0;strokeColor=#248814;fillColor=#E9F3E6;verticalAlign=top;align=left;spacingLeft=30;fontColor=#248814;dashed=0;" vertex="1" parent="1">
          <mxGeometry x="170" y="210" width="340" height="170" as="geometry" />
        </mxCell>
        <mxCell id="2aH_tvC3fVsrlXDJNFyo-8" value="10.0.0.0/24(IPv4)&lt;br&gt;2600:1f16:cdb:cc01::/56（IPv6)" style="whiteSpace=wrap;html=1;" vertex="1" parent="1">
          <mxGeometry x="260" y="255" width="180" height="60" as="geometry" />
        </mxCell>
        <mxCell id="2aH_tvC3fVsrlXDJNFyo-9" value="private subnet" style="points=[[0,0],[0.25,0],[0.5,0],[0.75,0],[1,0],[1,0.25],[1,0.5],[1,0.75],[1,1],[0.75,1],[0.5,1],[0.25,1],[0,1],[0,0.75],[0,0.5],[0,0.25]];outlineConnect=0;gradientColor=none;html=1;whiteSpace=wrap;fontSize=12;fontStyle=0;shape=mxgraph.aws4.group;grIcon=mxgraph.aws4.group_security_group;grStroke=0;strokeColor=#248814;fillColor=#E9F3E6;verticalAlign=top;align=left;spacingLeft=30;fontColor=#248814;dashed=0;" vertex="1" parent="1">
          <mxGeometry x="170" y="420" width="340" height="170" as="geometry" />
        </mxCell>
        <mxCell id="2aH_tvC3fVsrlXDJNFyo-10" value="10.0.1.0/24(IPv4)&lt;br&gt;2600:1f16:cdb:cc01::/56（IPv6)" style="whiteSpace=wrap;html=1;" vertex="1" parent="1">
          <mxGeometry x="260" y="450" width="180" height="65" as="geometry" />
        </mxCell>
        <mxCell id="2aH_tvC3fVsrlXDJNFyo-11" value="10.0.0.0/16(IPv4)&lt;br&gt;2600:1f16:cdb:cc01::/56（IPv6)" style="whiteSpace=wrap;html=1;" vertex="1" parent="1">
          <mxGeometry x="484.5" y="140" width="180" height="60" as="geometry" />
        </mxCell>
      </root>
    </mxGraphModel>
  </diagram>
</mxfile>
